<svg width="100" height="100" viewBox="0 0 100 100" fill="none" xmlns="http://www.w3.org/2000/svg">
<rect width="100" height="100" fill="#ECECEC"/>
<rect width="100" height="100" fill="white"/>
<rect width="100" height="100" fill="white"/>
<rect x="8.33334" y="16.6667" width="13.3333" height="11.6667" rx="2" fill="black"/>
<rect x="8.33334" y="35" width="13.3333" height="11.6667" rx="2" fill="black"/>
<rect x="8.33334" y="53.3333" width="13.3333" height="11.6667" rx="2" fill="black"/>
<rect x="8.33334" y="71.6667" width="13.3333" height="11.6667" rx="2" fill="black"/>
<rect x="30" y="16.6667" width="13.3333" height="11.6667" rx="2" fill="#A7D3A6"/>
<rect x="30" y="35" width="13.3333" height="11.6667" rx="2" fill="#A7D3A6"/>
<rect x="50" y="35" width="13.3333" height="11.6667" rx="2" fill="#FA727E"/>
<rect x="78.3333" y="53.3333" width="13.3333" height="11.6667" rx="2" fill="#A7D3A6"/>
<rect x="50" y="16.6667" width="41.6667" height="11.6667" rx="2" fill="#F7A072"/>
<rect x="30" y="53.3333" width="41.6667" height="11.6667" rx="2" fill="#A3CDE6"/>
<rect x="30" y="71.6667" width="33.3333" height="11.6667" rx="2" fill="#CA9CE1"/>
<path fill-rule="evenodd" clip-rule="evenodd" d="M22.7778 0H0V22.7778C0 10.198 10.198 0 22.7778 0ZM77.2222 0C89.7958 0 99.9898 10.1878 100 22.7589V0H77.2222ZM100 77.2411C99.9898 89.8059 89.8059 99.9898 77.2411 100H100V77.2411ZM22.7589 100C10.1878 99.9898 0 89.7958 0 77.2222V100H22.7589Z" fill="white"/>
<path d="M0.25 22.7778C0.25 10.336 10.336 0.25 22.7778 0.25H77.2222C89.664 0.25 99.75 10.336 99.75 22.7778V77.2222C99.75 89.664 89.664 99.75 77.2222 99.75H22.7778C10.336 99.75 0.25 89.664 0.25 77.2222V22.7778Z" stroke="black" stroke-opacity="0.06" stroke-width="0.5"/>
</svg>
